<svg width="14" height="14" viewBox="0 0 14 14" fill="none" xmlns="http://www.w3.org/2000/svg">
<path d="M7 0C5.14462 0.00369967 3.36629 0.742386 2.05434 2.05434C0.742386 3.36629 0.00369967 5.14462 0 7V12.901C0 13.1925 0.115787 13.472 0.32189 13.6781C0.527992 13.8842 0.807527 14 1.099 14H7C8.85652 14 10.637 13.2625 11.9497 11.9497C13.2625 10.637 14 8.85652 14 7C14 5.14348 13.2625 3.36301 11.9497 2.05025C10.637 0.737498 8.85652 0 7 0ZM8.96 8.96H4.76C4.61148 8.96 4.46904 8.901 4.36402 8.79598C4.259 8.69096 4.2 8.54852 4.2 8.4C4.2 8.25148 4.259 8.10904 4.36402 8.00402C4.46904 7.899 4.61148 7.84 4.76 7.84H8.96C9.10852 7.84 9.25096 7.899 9.35598 8.00402C9.461 8.10904 9.52 8.25148 9.52 8.4C9.52 8.54852 9.461 8.69096 9.35598 8.79598C9.25096 8.901 9.10852 8.96 8.96 8.96ZM8.96 6.72H4.76C4.61148 6.72 4.46904 6.661 4.36402 6.55598C4.259 6.45096 4.2 6.30852 4.2 6.16C4.2 6.01148 4.259 5.86904 4.36402 5.76402C4.46904 5.659 4.61148 5.6 4.76 5.6H8.96C9.10852 5.6 9.25096 5.659 9.35598 5.76402C9.461 5.86904 9.52 6.01148 9.52 6.16C9.52 6.30852 9.461 6.45096 9.35598 6.55598C9.25096 6.661 9.10852 6.72 8.96 6.72Z" fill="#F7C214"/>
</svg>
