<svg width="15" height="11" viewBox="0 0 15 11" fill="none" xmlns="http://www.w3.org/2000/svg">
<path d="M6.23704 10.3175H7.79286C8.22071 10.3175 8.57077 9.96787 8.57077 9.54054C8.57077 9.1132 8.22071 8.76356 7.79286 8.76356H6.23704C5.80919 8.76356 5.45913 9.1132 5.45913 9.54054C5.45913 9.96787 5.80919 10.3175 6.23704 10.3175ZM0.0137482 1.77078C0.0137482 2.19812 0.363808 2.54776 0.79166 2.54776H13.2382C13.6661 2.54776 14.0162 2.19812 14.0162 1.77078C14.0162 1.34344 13.6661 0.993805 13.2382 0.993805H0.79166C0.363808 0.993805 0.0137482 1.34344 0.0137482 1.77078ZM3.12539 6.43263H10.9045C11.3324 6.43263 11.6824 6.08299 11.6824 5.65566C11.6824 5.22832 11.3324 4.87868 10.9045 4.87868H3.12539C2.69754 4.87868 2.34748 5.22832 2.34748 5.65566C2.34748 6.08299 2.69754 6.43263 3.12539 6.43263Z" fill="#555555"/>
</svg>
