<svg width="12" height="15" viewBox="0 0 12 15" fill="none" xmlns="http://www.w3.org/2000/svg">
<path d="M1.76123 9.12372L3.77305 11.1355V14.105C3.77305 14.5133 4.10712 14.8474 4.51542 14.8474H7.4849C7.8932 14.8474 8.22727 14.5133 8.22727 14.105V11.1355L10.2391 9.12372C10.3082 9.0546 10.3629 8.97238 10.3998 8.88187C10.4368 8.79137 10.4553 8.6944 10.4544 8.59664V5.93895C10.4544 5.53065 10.1203 5.19658 9.712 5.19658H2.28831C1.88001 5.19658 1.54594 5.53065 1.54594 5.93895V8.60406C1.54594 8.79708 1.6276 8.99009 1.76123 9.12372ZM6.00016 0C6.40846 0 6.74253 0.334066 6.74253 0.742369V1.48474C6.74253 1.89304 6.40846 2.22711 6.00016 2.22711C5.59186 2.22711 5.25779 1.89304 5.25779 1.48474V0.742369C5.25779 0.334066 5.59186 0 6.00016 0ZM0.217101 2.35331C0.506625 2.06379 0.974318 2.06379 1.27127 2.35331L1.79835 2.88039C1.86708 2.94912 1.9216 3.03072 1.95879 3.12052C1.99599 3.21032 2.01513 3.30656 2.01513 3.40376C2.01513 3.50096 1.99599 3.59721 1.95879 3.68701C1.9216 3.77681 1.86708 3.8584 1.79835 3.92713C1.72962 3.99586 1.64802 4.05038 1.55822 4.08758C1.46842 4.12478 1.37218 4.14392 1.27498 4.14392C1.17778 4.14392 1.08153 4.12478 0.991731 4.08758C0.901931 4.05038 0.820337 3.99586 0.751607 3.92713L0.217101 3.40005C0.148281 3.33137 0.0936817 3.24979 0.0564285 3.15999C0.0191754 3.07018 0 2.97391 0 2.87668C0 2.77945 0.0191754 2.68318 0.0564285 2.59337C0.0936817 2.50357 0.148281 2.42199 0.217101 2.35331ZM10.2094 2.88039L10.7365 2.35331C10.8753 2.2145 11.0635 2.13652 11.2598 2.13652C11.4561 2.13652 11.6444 2.2145 11.7832 2.35331C11.922 2.49212 12 2.68038 12 2.87668C12 3.07298 11.922 3.26124 11.7832 3.40005L11.2561 3.92713C11.1173 4.06594 10.9291 4.14392 10.7328 4.14392C10.5365 4.14392 10.3482 4.06594 10.2094 3.92713C10.0706 3.78833 9.9926 3.60006 9.9926 3.40376C9.9926 3.20746 10.0706 3.0192 10.2094 2.88039Z" fill="#555555"/>
</svg>
