<svg width="12" height="12" viewBox="0 0 12 12" fill="none" xmlns="http://www.w3.org/2000/svg">
<path fill-rule="evenodd" clip-rule="evenodd" d="M0 1.2C0 0.536 0.5368 0 1.2 0H10.8C11.4632 0 12 0.536 12 1.2V8.3944C12 9.0584 11.4632 9.5944 10.8 9.5944H6.1336L3.04 11.912C2.98057 11.9566 2.90991 11.9837 2.83592 11.9904C2.76194 11.9971 2.68756 11.983 2.62111 11.9498C2.55467 11.9165 2.49879 11.8655 2.45974 11.8023C2.42069 11.7391 2.4 11.6663 2.4 11.592V9.5936H1.2C0.5368 9.5936 0 9.0576 0 8.3936V1.2ZM3.2 3.1976H8.8V3.9976H3.2V3.1976ZM3.2 5.596H7.2V6.396H3.2V5.596Z" fill="#8F8F8F"/>
</svg>
